<svg xmlns="http://www.w3.org/2000/svg" xmlns:xlink="http://www.w3.org/1999/xlink" width="25.6" height="25.6" version="1.1" viewBox="0 0 24 24"><defs><linearGradient id="linearGradient4667" x1="-31.824" x2="19.682" y1="-11.741" y2="35.548" gradientTransform="scale(.95818 1.0436)" gradientUnits="userSpaceOnUse" xlink:href="#linearGradient-2"/><linearGradient id="linearGradient-2" x1="-3.881" x2="2.377" y1="-1.442" y2="4.304"><stop offset="0" stop-color="#C06FBB"/><stop offset="1" stop-color="#6E4D9B"/></linearGradient><linearGradient id="linearGradient4671" x1="12.022" x2="-15.716" y1="13.922" y2="-23.952" gradientTransform="scale(.96226 1.0392)" gradientUnits="userSpaceOnUse" xlink:href="#linearGradient-3"/><linearGradient id="linearGradient-3" x1=".729" x2="-.971" y1=".844" y2="-1.477"><stop offset="0" stop-color="#6E4D9B"/><stop offset=".14" stop-color="#77327A"/><stop offset=".29" stop-color="#B31777"/><stop offset=".84" stop-color="#CD0F7E"/><stop offset="1" stop-color="#ED2C89"/></linearGradient><linearGradient id="linearGradient4675" x1="-23.39" x2="23.931" y1="-57.289" y2="8.573" gradientTransform="scale(1.0429 .95884)" gradientUnits="userSpaceOnUse" xlink:href="#linearGradient-4"/><linearGradient id="linearGradient-4" x1="-2.839" x2="2.875" y1="-6.936" y2="1.017"><stop offset="0" stop-color="#C06FBB"/><stop offset="1" stop-color="#6E4D9B"/></linearGradient><linearGradient id="linearGradient4679" x1="-53.331" x2="6.771" y1="-30.517" y2="18.785" gradientTransform="scale(.99898 1.001)" gradientUnits="userSpaceOnUse" xlink:href="#linearGradient-5"/><linearGradient id="linearGradient-5" x1="-8.212" x2="1.02" y1="-4.691" y2="2.882"><stop offset="0" stop-color="#C06FBB"/><stop offset="1" stop-color="#6E4D9B"/></linearGradient><linearGradient id="linearGradient4683" x1="-14.029" x2="41.998" y1="-23.111" y2="26.259" gradientTransform="scale(1.0003 .99965)" gradientUnits="userSpaceOnUse" xlink:href="#linearGradient-6"/><linearGradient id="linearGradient-6" x1="-1.404" x2="4.19" y1="-2.309" y2="2.62"><stop offset="0" stop-color="#C06FBB"/><stop offset="1" stop-color="#6E4D9B"/></linearGradient><linearGradient id="linearGradient4687" x1="31.177" x2="3.37" y1="41.442" y2="3.402" gradientTransform="scale(.96254 1.0389)" gradientUnits="userSpaceOnUse" xlink:href="#linearGradient-7"/><linearGradient id="linearGradient-7" x1="1.911" x2=".204" y1="2.539" y2=".204"><stop offset="0" stop-color="#6E4D9B"/><stop offset=".14" stop-color="#77327A"/><stop offset=".29" stop-color="#B31777"/><stop offset=".84" stop-color="#CD0F7E"/><stop offset="1" stop-color="#ED2C89"/></linearGradient><linearGradient id="linearGradient4691" x1="-31.905" x2="19.599" y1="-14.258" y2="42.767" gradientTransform="scale(.95823 1.0436)" gradientUnits="userSpaceOnUse" xlink:href="#linearGradient-8"/><linearGradient id="linearGradient-8" x1="-3.881" x2="2.377" y1="-1.738" y2="5.19"><stop offset="0" stop-color="#C06FBB"/><stop offset="1" stop-color="#6E4D9B"/></linearGradient><linearGradient id="linearGradient4695" x1="4.301" x2="34.534" y1="34.41" y2="4.514" gradientTransform="scale(1.002 .99796)" gradientUnits="userSpaceOnUse" xlink:href="#linearGradient-9-8"/><linearGradient id="linearGradient-9-8" x1=".112" x2=".901" y1=".897" y2=".116"><stop offset="0" stop-color="#6E4D9B"/><stop offset=".14" stop-color="#77327A"/><stop offset=".53" stop-color="#B31777"/><stop offset=".79" stop-color="#CD0F7E"/><stop offset="1" stop-color="#ED2C89"/></linearGradient></defs><g id="Main-Navigation" fill="none" fill-rule="evenodd" stroke-linejoin="round" stroke-miterlimit="1.414" clip-rule="evenodd" transform="matrix(1.489 0 0 1.489 -237.04 -214.61)"><g id="Main-Navigation---Home" transform="translate(-7.4835,-32.744)"><g id="Icon" transform="matrix(.31022 .061897 -.061897 .31022 169.49 177.35)"><g id="Group" fill="url(#linearGradient4667)" transform="rotate(-11.284,17.839,-78.732)"><path fill="url(#linearGradient4667)" d="M 8.0016,6.1269 4.1172,8.7194 0.1156,2.7226 4,0.1301 Z"/></g><g fill="url(#linearGradient4671)" transform="rotate(-11.284,129.49,-99.884)"><path fill="url(#linearGradient4671)" d="m9.1789 1.8875 6.6368 9.9454-7.9061 5.276l-6.6368-9.9455-1.1579-1.7348 7.9062-5.276z"/></g><g fill="url(#linearGradient4675)" transform="rotate(-11.284,167.2,-62.32)"><path fill="url(#linearGradient4675)" d="m7.3003 1.8791 1.4612 2.1896-6.0177 4.0158-2.6191-3.9246 1.3147-.87731 4.7032-3.1385z"/></g><g fill="url(#linearGradient4679)" transform="rotate(-11.284,104.37,-149.22)"><path fill="url(#linearGradient4679)" d="m2.3281 1.1463 1.6879-1.1263 2.6189 3.9246-3.8848 2.5925-1.4612-2.1896 2.1969-1.4661zm-1.0392 3.2011-1.1577-1.735 2.1969-1.4661 1.1577 1.735z"/></g><g fill="url(#linearGradient4683)" transform="rotate(-11.284,81.819,7.6453)"><path fill="url(#linearGradient4683)" d="m5.3459 9.1545-1.3145.87731-4.0019-5.9968 6.0177-4.0158 2.8051 4.2036-4.7031 3.1385 4.7031-3.1385 1.1968 1.7934z"/></g><g fill="url(#linearGradient4687)" transform="rotate(-11.284,17.141,-7.8246)"><path fill="url(#linearGradient4687)" d="m14.533 9.9339 1.1967 1.7934-7.9062 5.276l-1.1967-1.7934-6.5747-9.8522 7.9062-5.276z"/></g><g fill="url(#linearGradient4691)" transform="rotate(-11.284,18.188,-79.174)"><path fill="url(#linearGradient4691)" d="m6.2346 7.1767-2.1969 1.466-1.1968-1.7933-2.8051-4.2036 3.8848-2.5925 4.0019 5.9968z"/></g><g fill="#714896"><path d="m1.1715 5.0177-1.1579-1.735 4.7032-3.1385 1.1577 1.735z" transform="rotate(-11.284,166.49,-69.536)"/></g><g fill="#6f4795"><path d="m1.2889 3.2385-1.1577-1.735 2.1969-1.4661 1.1577 1.735z" transform="rotate(-11.284,109.99,-149.77)"/></g><g fill="#88519f"><path d="m1.2271 5.0357-1.1967-1.7933 4.7031-3.1385 1.1968 1.7934z" transform="rotate(-11.284,100.61,-15.26)"/></g><g fill="#85509e"><path d="m1.3446 3.415-1.1968-1.7933 2.1971-1.4661 1.1967 1.7934z" transform="rotate(-11.284,43.301,-95.418)"/></g><g fill="#8d166a"><path d="m9.1789 1.8875-7.9061 5.2759-1.1579-1.7348 7.9062-5.276z" transform="rotate(-11.284,129.49,-99.884)"/></g><g fill="#a70d6f"><path d="m8.038.11216 1.1967 1.7934-7.9062 5.276-1.1967-1.7934z" transform="rotate(-11.284,63.604,-45.609)"/></g><g fill="#9e61ad" transform="rotate(45,-13.019,8.751)"><rect id="Rectangle-path" width="2.688" height="2.688" x="0"/></g><g fill="#8053a3" transform="rotate(45,-36.276,36.979)"><rect width="2.688" height="2.688" x="0"/></g><g fill="url(#linearGradient4695)" transform="translate(1.8225,1.5477)"><path fill="url(#linearGradient4695)" d="m8.3723 38.294-8.3556-8.4182 29.732-29.795 8.6368 8.2012z"/></g></g></g></g></svg>