<svg xmlns="http://www.w3.org/2000/svg" width="323" height="323" enable-background="new 0 0 323.141 322.95" version="1.1" viewBox="0 0 323 323" xml:space="preserve"><g><g transform="matrix(.80529 0 0 .80529 30.106 31.524) translate(2.3639 -1.0967)"><polygon fill="#f0ad00" points="91.783 82.916 161.65 152.78 231.51 82.916" transform="matrix(.97372 0 0 .97372 3.3986 5.0979)"/><polygon fill="#7fd13b" points="79.241 70.375 232.21 70.375 161.84 0 8.867 0" transform="matrix(.97372 0 0 .97372 3.3986 5.0979)"/><rect width="104.85" height="105.32" x="234.71" y="-110.23" fill="#7fd13b" stroke-width=".974" transform="rotate(45)"/><polygon fill="#60b5cc" points="179.57 0 323.3 143.72 323.3 0" transform="matrix(.97372 0 0 .97372 3.3986 5.0979)"/><polygon fill="#5a6378" points="0 314.43 152.78 161.65 0 8.868" transform="matrix(.97372 0 0 .97372 3.3986 5.0979)"/><polygon fill="#f0ad00" points="323.3 178.88 255.52 246.66 323.3 314.43" transform="matrix(.97372 0 0 .97372 3.3986 5.0979)"/><polygon fill="#60b5cc" points="314.43 323.3 161.65 170.52 8.869 323.3" transform="matrix(.97372 0 0 .97372 3.3986 5.0979)"/></g></g></svg>