<svg xmlns="http://www.w3.org/2000/svg" fill-rule="evenodd" stroke-linejoin="round" stroke-miterlimit="1.414" clip-rule="evenodd" version="1.1" viewBox="0 0 24 24" xml:space="preserve"><path fill="#616161" fill-rule="nonzero" d="m10 4h-6c-1.11 0-2 0.89-2 2v12c0 1.097 0.903 2 2 2h16c1.097 0 2-0.903 2-2v-10c0-1.11-0.9-2-2-2h-8z"/><path fill="#e8e8e8" fill-rule="evenodd" d="m9.031 21.532v-8.834-1.085l1.719-0.01c2.814 0 4.151 0.603 4.2 3.024-0.09 2.483-1.346 3.187-4.21 3.026v3.879h-1.709zm1.699-5.246l-0.01-3.377q2.814-0.181 2.794 1.709-0.02 1.889-2.784 1.668z"/><path fill="#FFD180" d="m15.815 21.542l0.02-7.929 3.93 3.612 3.829-3.753 0.04 8.09-7.819-0.02z"/><path fill="#FFD180" d="m15.815 11.603l3.94 3.748 3.819-3.789-7.759 0.041z"/></svg>