<svg xmlns="http://www.w3.org/2000/svg" stroke-linejoin="round" stroke-miterlimit="1.414" clip-rule="evenodd" version="1.1" viewBox="0 0 24 24" xml:space="preserve"><path fill="#ff9800" d="m19 20h-15c-1.11 0-2-0.9-2-2v-12c0-1.11 0.89-2 2-2h6l2 2h7c1.097 0 2 0.903 2 2h-17v10l2.14-8h17.07l-2.28 8.5c-0.23 0.87-1.01 1.5-1.93 1.5z"/><path fill="#ffe0b2" stroke-width=".652" d="m21.159 10.275 1.3031 2.6062h-1.9547l-1.3031-2.6062h-1.3031l1.3031 2.6062h-1.9547l-1.3031-2.6062h-1.3031l1.3031 2.6062h-1.9547l-1.3031-2.6062h-0.65156a1.3031 1.3031 0 0 0 -1.3031 1.3031v7.8188a1.3031 1.3031 0 0 0 1.3031 1.3031h10.425a1.3031 1.3031 0 0 0 1.3031 -1.3031v-9.1219z"/></svg>