<svg xmlns="http://www.w3.org/2000/svg" stroke-linejoin="round" stroke-miterlimit="1.414" clip-rule="evenodd" version="1.1" viewBox="0 0 24 24" xml:space="preserve"><path fill="#0097a7" d="m19 20h-15c-1.11 0-2-.9-2-2v-12c0-1.11.89-2 2-2h6l2 2h7c1.097 0 2 .903 2 2h-17v10l2.14-8h17.07l-2.28 8.5c-.23.87-1.01 1.5-1.93 1.5z" style="fill:#8d6e63"/><path stroke-miterlimit="4" d="m17.651 19.894a4.7612 4.7612 0 0 0 4.7612 -4.7612 4.7612 4.7612 0 0 0 -4.7612 -4.7612 4.7612 4.7612 0 0 0 -4.7612 4.7612 4.7612 4.7612 0 0 0 4.7612 4.7612m0-10.713a5.9515 5.9515 0 0 1 5.9515 5.9515 5.9515 5.9515 0 0 1 -5.9515 5.9515c-3.2912 0-5.9515-2.6782-5.9515-5.9515a5.9515 5.9515 0 0 1 5.9515 -5.9515m.29758 2.9758v3.1245l2.6782 1.5891-.44636.73204-3.1245-1.8747v-3.5709z" style="fill:#d7ccc8;stroke-miterlimit:4;stroke-width:.271;stroke:#d7ccc8"/></svg>