<svg xmlns="http://www.w3.org/2000/svg" width="500" height="500" version="1.1" viewBox="0 0 500 500"><title>logo-square</title><desc>Created with Sketch.</desc><g fill="none" fill-rule="evenodd" transform="matrix(.83655 0 0 .83655 40.975 42.814)"><g id="logo-square"><g id="logo-no-bg" transform="translate(2,19)"><g id="gitlab_logo"><g transform="matrix(1 0 0 -1 0 457.33)"><g id="g18-Clipped"><g id="Group"><g fill="#fc6d26"><path d="m492 194.67-27.559 84.815-54.617 168.1c-2.8093 8.648-15.045 8.648-17.856 0l-54.619-168.1h-181.37l-54.62 168.1c-2.8093 8.648-15.045 8.648-17.856 0l-54.617-168.1-27.557-84.815c-2.5147-7.736 0.24-16.211 6.82-20.992l238.51-173.29 238.51 173.29c6.58 4.7813 9.3333 13.256 6.82 20.992" transform="translate(.66666 .66666) translate(.532 .77493)"/></g><g fill="#e24329"><path d="m91 0l90.684 279.1h-181.37z" transform="translate(.66666 .66666) translate(156.2 1.1603)"/></g><g fill="#fc6d26"><path d="m218.67 0-90.684 279.09h-127.09z" transform="translate(.66666 .66666) translate(28.531 1.1608)"/></g><g fill="#fca326"><path d="m29.333 280l-27.559-84.815c-2.5133-7.736 0.24-16.211 6.8213-20.991l238.51-173.29z" transform="translate(.66666 .66666) translate(.088533 .25587)"/></g><g fill="#e24329"><path d="m0 0h127.09l-54.619 168.1c-2.8107 8.6493-15.047 8.6493-17.856 0z" transform="translate(.66666 .66666) translate(29.422 280.26)"/></g><g fill="#fc6d26"><path d="m0 0 90.684 279.09h127.09z" transform="translate(.66666 .66666) translate(247.2 1.1608)"/></g><g fill="#fca326"><path d="m218.67 280l27.559-84.815c2.5133-7.736-0.24-16.211-6.8213-20.991l-238.51-173.29z" transform="translate(.66666 .66666) translate(246.31 .25587)"/></g><g fill="#e24329"><path d="m128 0h-127.09l54.619 168.1c2.8107 8.6493 15.047 8.6493 17.856 0z" transform="translate(.66666 .66666) translate(336.97 280.26)"/></g></g></g></g></g></g></g></g></svg>