<svg xmlns="http://www.w3.org/2000/svg" version="1.1" viewBox="0 0 24 24"><g transform="translate(.28169 -.13395)"><g fill="#73cddc"><path d="m10.575 1.6953c-2.6341 0-4.7565 2.453-4.7565 5.5017v4.5995c-.00877-.000751-.017765-.0015-.026536-.0022v4.7101c0 3.0487 2.1224 5.5017 4.7565 5.5017h2.2865c2.6341 0 4.7565-2.453 4.7565-5.5017v-4.5995c.0088.000749.01777.0015.02654.0022v-4.7101c0-3.0487-2.1224-5.5017-4.7565-5.5017h-2.2865z"/><rect width="2.289" height="3.335" x="-1.177" y="6.093" ry="1.125" transform="matrix(.48489 -.87457 .85979 .51065 0 0)"/><rect width="2.297" height="3.39" x="10.261" y="-15.076" ry="1.143" transform="matrix(.44646 .8948 -.89204 .45195 0 0)"/></g><circle cx="9.267" cy="5.13" r="2.054" fill="#fff" stroke="#5e5d5b" stroke-width=".1"/><circle cx="14.214" cy="5.116" r="2.054" fill="#fff" stroke="#5e5d5b" stroke-width=".1"/><ellipse cx="8.039" cy="5.051" fill="#030d18" rx=".792" ry=".901"/><path fill="#fff" stroke="#fff" stroke-width=".155" d="m11.792 9.5557.76303.13832a.40286 .68856 0 0 1 .008 .13832 .40286 .68856 0 0 1 -.40259 .68923 .40286 .68856 0 0 1 -.40332 -.68923 .40286 .68856 0 0 1 .03488 -.27664z"/><ellipse cx="8.51" cy="5.365" fill="#fff" rx=".138" ry=".166"/><ellipse cx="12.945" cy="5.189" fill="#030d18" rx=".792" ry=".901"/><ellipse cx="13.414" cy="5.446" fill="#fff" rx=".138" ry=".166"/><ellipse cx="-12.982" cy="-3.409" fill="#f6d2a1" rx=".708" ry="1.026" transform="matrix(-.63477 -.7727 .7727 -.63477 0 0)"/><path fill="#fff" stroke="#fff" stroke-width=".153" d="m11.772 9.5526-.75678.13495a.39956 .6718 0 0 0 -.0079 .13495 .39956 .6718 0 0 0 .39929 .67245 .39956 .6718 0 0 0 .40001 -.67245 .39956 .6718 0 0 0 -.0346 -.2699z"/><g fill="#f6d2a1"><ellipse cx="1.841" cy="-21.563" rx=".707" ry="1.026" transform="matrix(.63477 -.7727 -.7727 -.63477 0 0)"/><ellipse cx="-17.281" cy="-21.784" rx=".864" ry="1.27" transform="matrix(.3054 -.95222 -.97065 -.24051 0 0)"/><ellipse cx="22.885" cy="2.587" rx=".864" ry="1.27" transform="matrix(.22652 .97401 .95652 -.29167 0 0)"/><path stroke="#657075" stroke-width=".1" d="m10.708 8.3921c-.32934 0-.59377.26653-.59377.59734v.11487c0 .33081.26444.59734.59377.59734h.38609a.97346 .77195 0 0 1 .69716 -.23434 .97346 .77195 0 0 1 .69807 .23434h.33394c.32934 0 .59469-.26654.59469-.59734v-.11487c0-.33081-.26535-.59734-.59469-.59734h-2.1153z"/></g><ellipse cx="11.734" cy="8.203" fill="#030d18" stroke="#fff" stroke-width=".162" rx="1.208" ry=".68"/></g></svg>