<svg xmlns="http://www.w3.org/2000/svg" width="40mm" height="40mm" version="1.1" viewBox="0 0 40 40"><g fill="#317eac" transform="translate(0,-257)"><rect width="3.685" height="34.207" x="5.419" y="260.18"/><rect width="3.685" height="34.207" x="288.2" y="-37.074" transform="rotate(90)"/><rect width="2.835" height="34.207" x="208.79" y="166.91" transform="rotate(45)"/><rect width="2.835" height="22.08" x="10.73" y="262.47"/><rect width="2.835" height="17.382" x="15.36" y="262.52"/><rect width="2.835" height="12.802" x="19.99" y="262.47"/><rect width="2.835" height="8.254" x="24.526" y="262.49"/><rect width="2.835" height="5.197" x="28.783" y="262.46"/><rect width="2.835" height="22.08" x="-286.54" y="-34.801" transform="matrix(0,-1,-1,0,0,0)"/><rect width="2.835" height="17.382" x="-281.91" y="-34.753" transform="matrix(0,-1,-1,0,0,0)"/><rect width="2.835" height="12.802" x="-277.28" y="-34.801" transform="matrix(0,-1,-1,0,0,0)"/><rect width="2.835" height="8.254" x="-272.75" y="-34.781" transform="matrix(0,-1,-1,0,0,0)"/><rect width="2.835" height="5.197" x="-268.49" y="-34.809" transform="matrix(0,-1,-1,0,0,0)"/></g></svg>