<svg xmlns="http://www.w3.org/2000/svg" style="enable-background:new 0 0 200 200" version="1.1" viewBox="0 0 200 200" xml:space="preserve"><style type="text/css">.st0{fill:url(#SVGID_1_)}.st1{fill:url(#SVGID_2_)}.st2{fill:url(#SVGID_3_)}.st3{fill:url(#SVGID_4_)}.st4{fill:url(#SVGID_5_)}.st5{fill:url(#SVGID_6_)}</style><g><linearGradient id="SVGID_1_" x1="72.428" x2="99.994" y1="880.55" y2="880.55" gradientTransform="translate(0 -852)" gradientUnits="userSpaceOnUse"><stop style="stop-color:#eea831" offset="0"/><stop style="stop-color:#ffc929" offset="1"/></linearGradient><linearGradient id="SVGID_2_" x1="100" x2="163.3" y1="942.7" y2="942.7" gradientTransform="translate(0 -852)" gradientUnits="userSpaceOnUse"><stop style="stop-color:#b32629" offset="0"/><stop style="stop-color:#8c1e21" offset=".583"/><stop style="stop-color:#7a1a1d" offset="1"/></linearGradient><linearGradient id="SVGID_3_" x1="100" x2="127.57" y1="880.55" y2="880.55" gradientTransform="translate(0 -852)" gradientUnits="userSpaceOnUse"><stop style="stop-color:#e8a333" offset="0"/><stop style="stop-color:#c68931" offset=".612"/><stop style="stop-color:#ab762f" offset="1"/></linearGradient><linearGradient id="SVGID_4_" x1="100" x2="199" y1="1004.8" y2="1004.8" gradientTransform="translate(0 -852)" gradientUnits="userSpaceOnUse"><stop style="stop-color:#b32629" offset="0"/><stop style="stop-color:#8c1e21" offset=".583"/><stop style="stop-color:#7a1a1d" offset="1"/></linearGradient><linearGradient id="SVGID_5_" x1="1" x2="100" y1="1004.8" y2="1004.8" gradientTransform="translate(0 -852)" gradientUnits="userSpaceOnUse"><stop style="stop-color:#ae2524" offset="0"/><stop style="stop-color:#d01d19" offset=".563"/><stop style="stop-color:#ed1913" offset="1"/></linearGradient><linearGradient id="SVGID_6_" x1="36.7" x2="100" y1="942.7" y2="942.7" gradientTransform="translate(0 -852)" gradientUnits="userSpaceOnUse"><stop style="stop-color:#ae2524" offset="0"/><stop style="stop-color:#d01d19" offset=".563"/><stop style="stop-color:#ed1913" offset="1"/></linearGradient><g transform="translate(9.322 -9.322)"><polygon points="100 56.1 100 1 72.4 41.8" class="st0" transform="matrix(.90584 0 0 .90584 .094162 18.738)" style="fill:#fbc02d"/><polygon points="100 127.6 163.3 94.6 135.7 53.8 100 72.4" class="st1" transform="matrix(.90584 0 0 .90584 .094162 18.738)" style="fill:#b71c1c"/><polygon points="100 1 100 56.1 127.6 41.8" class="st2" transform="matrix(.90584 0 0 .90584 .094162 18.738)" style="fill:#f9a825"/><polygon points="100 143.9 100 199 199 147.5 171.4 106.7" class="st3" transform="matrix(.90584 0 0 .90584 .094162 18.738)" style="fill:#b71c1c"/><polygon points="100 143.9 28.6 106.7 1 147.5 100 199" class="st4" transform="matrix(.90584 0 0 .90584 .094162 18.738)" style="fill:#e53935"/><polygon points="100 127.6 100 72.4 64.3 53.8 36.7 94.6" class="st5" transform="matrix(.90584 0 0 .90584 .094162 18.738)" style="fill:#e53935"/></g></g></svg>